<mxfile host="app.diagrams.net" modified="2024-04-22T19:24:10.677Z" agent="Mozilla/5.0 (Macintosh; Intel Mac OS X 10_15_7) AppleWebKit/537.36 (KHTML, like Gecko) Chrome/123.0.0.0 Safari/537.36" etag="fbObBA7viio-m4JKK6YJ" version="24.2.3" type="github">
  <diagram name="Page-1" id="2lbX3_ptLJk6MYNKhkgl">
    <mxGraphModel dx="1194" dy="681" grid="0" gridSize="10" guides="1" tooltips="1" connect="1" arrows="1" fold="1" page="0" pageScale="1" pageWidth="2380" pageHeight="3107" background="#274169" math="0" shadow="0">
      <root>
        <mxCell id="0" />
        <mxCell id="1" parent="0" />
        <mxCell id="camoJTw9AjYNHCTafV9I-1" value="" style="outlineConnect=0;fontColor=#232F3E;gradientColor=none;fillColor=#007FFF;strokeColor=none;dashed=0;verticalLabelPosition=bottom;verticalAlign=top;align=center;html=1;fontSize=18;fontStyle=1;aspect=fixed;pointerEvents=1;shape=mxgraph.aws4.container_1;rounded=0;" vertex="1" parent="1">
          <mxGeometry x="495" y="255" width="187.35" height="121" as="geometry" />
        </mxCell>
        <mxCell id="camoJTw9AjYNHCTafV9I-3" value="Code" style="text;align=center;html=1;verticalAlign=middle;whiteSpace=wrap;rounded=0;fontSize=18;labelBackgroundColor=none;fontColor=#FFFFFF;fontStyle=1" vertex="1" parent="1">
          <mxGeometry x="408" y="85" width="60" height="30" as="geometry" />
        </mxCell>
        <mxCell id="camoJTw9AjYNHCTafV9I-4" value="&lt;font style=&quot;font-size: 18px;&quot;&gt;Libraries&lt;/font&gt;" style="text;align=center;html=1;verticalAlign=middle;whiteSpace=wrap;rounded=0;fontSize=18;labelBackgroundColor=none;fontColor=#FFFFFF;fontStyle=1" vertex="1" parent="1">
          <mxGeometry x="244" y="330" width="60" height="30" as="geometry" />
        </mxCell>
        <mxCell id="camoJTw9AjYNHCTafV9I-5" value="Configs" style="text;align=center;html=1;verticalAlign=middle;whiteSpace=wrap;rounded=0;fontSize=18;labelBackgroundColor=none;fontColor=#FFFFFF;fontStyle=1" vertex="1" parent="1">
          <mxGeometry x="696" y="64" width="60" height="27" as="geometry" />
        </mxCell>
        <mxCell id="camoJTw9AjYNHCTafV9I-6" value="Environment" style="text;align=center;html=1;verticalAlign=middle;whiteSpace=wrap;rounded=0;fontSize=18;labelBackgroundColor=none;fontColor=#FFFFFF;fontStyle=1" vertex="1" parent="1">
          <mxGeometry x="408" y="546" width="109" height="30" as="geometry" />
        </mxCell>
        <mxCell id="camoJTw9AjYNHCTafV9I-7" value="Runtime" style="text;align=center;html=1;verticalAlign=middle;whiteSpace=wrap;rounded=0;fontSize=18;labelBackgroundColor=none;fontColor=#FFFFFF;fontStyle=1" vertex="1" parent="1">
          <mxGeometry x="873" y="290" width="60" height="30" as="geometry" />
        </mxCell>
        <mxCell id="camoJTw9AjYNHCTafV9I-17" value="" style="endArrow=classic;html=1;rounded=0;labelBackgroundColor=none;fontColor=#FFFFFF;strokeColor=#FFFFFF;fontStyle=1;fontSize=18;strokeWidth=4;" edge="1" parent="1">
          <mxGeometry width="50" height="50" relative="1" as="geometry">
            <mxPoint x="496" y="223" as="sourcePoint" />
            <mxPoint x="453" y="133" as="targetPoint" />
          </mxGeometry>
        </mxCell>
        <mxCell id="camoJTw9AjYNHCTafV9I-18" value="" style="endArrow=classic;html=1;rounded=0;labelBackgroundColor=none;fontColor=#FFFFFF;strokeColor=#FFFFFF;fontStyle=1;fontSize=18;strokeWidth=4;" edge="1" parent="1">
          <mxGeometry width="50" height="50" relative="1" as="geometry">
            <mxPoint x="465" y="324" as="sourcePoint" />
            <mxPoint x="335" y="344" as="targetPoint" />
          </mxGeometry>
        </mxCell>
        <mxCell id="camoJTw9AjYNHCTafV9I-19" value="" style="endArrow=classic;html=1;rounded=0;labelBackgroundColor=none;fontColor=#FFFFFF;strokeColor=#FFFFFF;fontStyle=1;fontSize=18;strokeWidth=4;" edge="1" parent="1">
          <mxGeometry width="50" height="50" relative="1" as="geometry">
            <mxPoint x="666" y="221" as="sourcePoint" />
            <mxPoint x="715" y="108" as="targetPoint" />
          </mxGeometry>
        </mxCell>
        <mxCell id="camoJTw9AjYNHCTafV9I-20" value="" style="endArrow=classic;html=1;rounded=0;labelBackgroundColor=none;fontColor=#FFFFFF;strokeColor=#FFFFFF;fontStyle=1;fontSize=18;strokeWidth=4;" edge="1" parent="1">
          <mxGeometry width="50" height="50" relative="1" as="geometry">
            <mxPoint x="714" y="312" as="sourcePoint" />
            <mxPoint x="839" y="308" as="targetPoint" />
          </mxGeometry>
        </mxCell>
        <mxCell id="camoJTw9AjYNHCTafV9I-21" value="" style="endArrow=classic;html=1;rounded=0;labelBackgroundColor=none;fontColor=#FFFFFF;strokeColor=#FFFFFF;fontStyle=1;fontSize=18;strokeWidth=4;" edge="1" parent="1">
          <mxGeometry width="50" height="50" relative="1" as="geometry">
            <mxPoint x="523" y="415" as="sourcePoint" />
            <mxPoint x="474" y="529" as="targetPoint" />
          </mxGeometry>
        </mxCell>
        <mxCell id="camoJTw9AjYNHCTafV9I-22" value="" style="endArrow=classic;html=1;rounded=0;labelBackgroundColor=none;fontColor=#FFFFFF;strokeColor=#FFFFFF;fontStyle=1;fontSize=18;strokeWidth=4;" edge="1" parent="1">
          <mxGeometry width="50" height="50" relative="1" as="geometry">
            <mxPoint x="656" y="412" as="sourcePoint" />
            <mxPoint x="722" y="504" as="targetPoint" />
          </mxGeometry>
        </mxCell>
        <mxCell id="camoJTw9AjYNHCTafV9I-23" value="OS/Kernel" style="text;align=center;html=1;verticalAlign=middle;whiteSpace=wrap;rounded=0;fontSize=18;labelBackgroundColor=none;fontColor=#FFFFFF;fontStyle=1" vertex="1" parent="1">
          <mxGeometry x="722" y="530" width="60" height="30" as="geometry" />
        </mxCell>
      </root>
    </mxGraphModel>
  </diagram>
</mxfile>
